<?xml version="1.0" standalone="no"?>
<!DOCTYPE svg PUBLIC "-//W3C//DTD SVG 20010904//EN"
 "http://www.w3.org/TR/2001/REC-SVG-20010904/DTD/svg10.dtd">
<svg version="1.0" xmlns="http://www.w3.org/2000/svg"
 width="260.000000pt" height="260.000000pt" viewBox="0 0 260.000000 260.000000"
 preserveAspectRatio="xMidYMid meet">
<metadata>
Created by potrace 1.11, written by Peter Selinger 2001-2013
</metadata>
<g transform="translate(0.000000,260.000000) scale(0.100000,-0.100000)"
fill="#000000" stroke="none">
<path d="M962 2485 c-10 -11 -18 -13 -32 -5 -14 7 -23 6 -35 -6 -8 -9 -22 -14
-29 -11 -8 3 -30 -2 -50 -12 -22 -12 -38 -15 -44 -9 -6 6 -20 4 -36 -7 -15
-10 -29 -15 -33 -12 -3 4 -15 0 -25 -8 -11 -7 -26 -11 -34 -8 -8 3 -16 -2 -20
-10 -3 -9 -14 -14 -26 -12 -18 4 -56 -11 -68 -26 -3 -4 -15 -9 -27 -13 -13 -4
-23 -12 -23 -17 0 -6 -5 -7 -10 -4 -6 3 -23 -3 -39 -14 -16 -12 -36 -21 -44
-21 -9 0 -22 -8 -29 -18 -7 -10 -29 -24 -48 -32 -19 -7 -41 -20 -48 -29 -7 -9
-17 -17 -22 -17 -6 -1 -14 -2 -19 -3 -5 0 -12 -8 -15 -17 -4 -10 -2 -13 7 -9
6 4 5 0 -3 -7 -24 -22 -40 -56 -40 -87 0 -17 -4 -33 -10 -36 -5 -3 -10 -23
-10 -45 0 -26 -5 -40 -16 -44 -13 -5 -14 -9 -4 -21 9 -11 9 -15 1 -15 -7 0
-10 -4 -7 -8 12 -20 14 -61 3 -59 -7 1 -12 -11 -12 -30 0 -18 -4 -33 -10 -33
-5 0 -5 -4 2 -8 10 -6 9 -14 -2 -35 -8 -15 -13 -54 -13 -94 1 -42 -3 -68 -11
-71 -15 -5 -16 -489 0 -494 7 -2 11 -34 11 -83 0 -44 5 -86 11 -93 14 -17 17
-52 4 -52 -5 0 -4 -6 2 -14 9 -11 9 -15 -1 -19 -8 -4 -9 -6 -1 -6 6 -1 9 -10
6 -21 -3 -11 -1 -20 5 -20 13 0 21 -60 8 -60 -6 0 -3 -5 7 -11 11 -6 17 -22
17 -44 0 -19 5 -37 10 -40 6 -3 10 -20 10 -37 0 -31 35 -82 58 -84 28 -2 33
-4 27 -13 -3 -5 4 -12 15 -16 11 -3 20 -12 20 -18 0 -13 40 -43 53 -39 4 1 7
-2 7 -7 0 -5 9 -13 20 -16 11 -3 20 -12 20 -18 1 -16 48 -50 59 -43 5 3 12 -1
15 -10 4 -9 9 -14 12 -11 4 3 13 -1 21 -9 8 -8 19 -12 24 -9 5 4 9 0 9 -7 0
-10 3 -9 10 2 8 12 10 12 16 -3 3 -9 10 -14 15 -11 5 3 16 -2 25 -10 9 -9 19
-14 24 -11 4 3 19 -8 32 -23 28 -33 55 -52 44 -31 -4 8 -1 6 7 -3 8 -10 22
-18 31 -18 9 0 16 -4 16 -10 0 -5 7 -10 16 -10 8 0 22 -6 30 -14 7 -8 23 -12
34 -9 11 3 20 0 20 -6 0 -6 9 -11 20 -11 11 0 20 -4 20 -10 0 -5 9 -10 19 -10
11 0 21 -5 23 -12 3 -7 24 -11 51 -11 26 0 47 -3 47 -8 0 -5 113 -9 255 -9
140 0 255 4 255 9 0 4 19 8 41 7 23 -1 47 4 54 11 7 7 29 11 49 9 20 -1 41 3
47 10 5 6 23 11 40 10 16 -1 35 4 41 11 6 8 18 13 27 11 9 -1 26 3 38 10 12 7
29 9 39 5 11 -4 15 -3 11 4 -8 12 26 23 54 18 10 -2 19 0 19 6 0 5 7 9 16 9 9
0 23 8 31 18 8 10 11 11 7 2 -7 -12 -5 -13 8 -3 8 7 19 9 23 5 5 -4 5 -2 2 4
-4 7 7 19 28 28 19 9 35 21 35 26 0 9 39 25 53 22 4 -1 7 4 7 12 0 12 22 28
43 30 4 1 17 12 30 26 12 14 29 26 37 28 8 2 32 21 52 43 21 21 41 39 45 39
14 0 46 78 40 94 -4 9 2 24 14 35 11 10 16 21 11 25 -13 8 -8 44 10 65 10 12
12 24 7 39 -5 12 -4 22 0 22 13 0 32 58 21 65 -4 3 -6 14 -3 25 3 11 10 17 15
13 6 -3 8 0 6 8 -3 8 -1 22 3 31 6 10 5 19 -2 23 -7 5 -5 15 5 31 23 34 24
817 2 860 -10 19 -12 33 -5 45 6 11 6 20 -1 24 -5 3 -7 12 -3 20 3 10 -1 15
-13 15 -15 0 -16 2 -5 9 8 5 9 11 3 15 -6 3 -8 14 -5 25 2 10 -2 25 -11 33 -8
9 -12 18 -9 22 3 3 0 13 -8 23 -12 15 -12 16 1 8 12 -7 12 -5 -1 11 -9 10 -14
25 -12 32 3 6 0 12 -6 12 -6 0 -11 8 -11 18 0 20 -77 97 -108 106 -12 4 -22
12 -22 17 0 6 -6 7 -12 3 -7 -4 -10 -4 -6 1 11 12 -11 35 -33 35 -11 0 -19 5
-19 11 0 6 -7 9 -15 5 -9 -3 -15 0 -15 10 0 8 -4 13 -9 10 -5 -3 -12 1 -15 10
-3 9 -13 14 -20 11 -8 -3 -17 1 -20 9 -3 9 -11 12 -17 8 -7 -4 -17 0 -23 8
-13 17 -42 30 -75 34 -13 2 -27 7 -30 11 -3 5 -13 8 -21 8 -8 -1 -25 5 -37 13
-13 8 -23 11 -23 7 0 -4 -11 0 -24 9 -16 10 -27 12 -31 5 -4 -6 -11 -6 -18 -1
-7 5 -20 8 -30 7 -10 -2 -20 2 -23 9 -3 7 -25 11 -62 10 -33 -1 -66 4 -78 11
-16 10 -24 11 -33 2 -8 -8 -11 -8 -11 1 0 14 -21 12 -32 -3 -5 -6 -8 -6 -8 2
0 7 -15 10 -45 7 -25 -2 -45 1 -45 6 0 6 -99 10 -262 10 -219 -1 -265 -3 -276
-15z"/>
</g>
</svg>
